<?xml version="1.0" encoding="utf-8" standalone="no"?>
<!DOCTYPE svg PUBLIC "-//W3C//DTD SVG 1.1//EN"
  "http://www.w3.org/Graphics/SVG/1.1/DTD/svg11.dtd">
<svg xmlns:xlink="http://www.w3.org/1999/xlink" width="288pt" height="288pt" viewBox="0 0 288 288" xmlns="http://www.w3.org/2000/svg" version="1.1">
 <metadata>
  <rdf:RDF xmlns:dc="http://purl.org/dc/elements/1.1/" xmlns:cc="http://creativecommons.org/ns#" xmlns:rdf="http://www.w3.org/1999/02/22-rdf-syntax-ns#">
   <cc:Work>
    <dc:type rdf:resource="http://purl.org/dc/dcmitype/StillImage"/>
    <dc:date>2025-03-31T11:18:50.063470</dc:date>
    <dc:format>image/svg+xml</dc:format>
    <dc:creator>
     <cc:Agent>
      <dc:title>Matplotlib v3.8.3, https://matplotlib.org/</dc:title>
     </cc:Agent>
    </dc:creator>
   </cc:Work>
  </rdf:RDF>
 </metadata>
 <defs>
  <style type="text/css">*{stroke-linejoin: round; stroke-linecap: butt}</style>
 </defs>
 <g id="figure_1">
  <g id="patch_1">
   <path d="M 0 288 
L 288 288 
L 288 0 
L 0 0 
L 0 288 
z
" style="fill: none"/>
  </g>
  <g id="axes_1">
   <g id="patch_2">
    <path d="M 36 256.32 
L 259.2 256.32 
L 259.2 34.56 
L 36 34.56 
L 36 256.32 
z
" style="fill: none"/>
   </g>
   <g id="matplotlib.axis_1">
    <g id="xtick_1">
     <g id="line2d_1">
      <defs>
       <path id="m4d474d1847" d="M 0 0 
L 0 3.5 
" style="stroke: #000000; stroke-width: 1.5"/>
      </defs>
      <g>
       <use xlink:href="#m4d474d1847" x="93.866667" y="256.32" style="stroke: #000000; stroke-width: 1.5"/>
      </g>
     </g>
    </g>
    <g id="xtick_2">
     <g id="line2d_2">
      <g>
       <use xlink:href="#m4d474d1847" x="160" y="256.32" style="stroke: #000000; stroke-width: 1.5"/>
      </g>
     </g>
    </g>
    <g id="xtick_3">
     <g id="line2d_3">
      <g>
       <use xlink:href="#m4d474d1847" x="226.133333" y="256.32" style="stroke: #000000; stroke-width: 1.5"/>
      </g>
     </g>
    </g>
   </g>
   <g id="matplotlib.axis_2">
    <g id="ytick_1">
     <g id="line2d_4">
      <defs>
       <path id="m764f32b072" d="M 0 0 
L -3.5 0 
" style="stroke: #000000; stroke-width: 1.5"/>
      </defs>
      <g>
       <use xlink:href="#m764f32b072" x="36" y="56.736" style="stroke: #000000; stroke-width: 1.5"/>
      </g>
     </g>
    </g>
    <g id="ytick_2">
     <g id="line2d_5">
      <g>
       <use xlink:href="#m764f32b072" x="36" y="101.088" style="stroke: #000000; stroke-width: 1.5"/>
      </g>
     </g>
    </g>
    <g id="ytick_3">
     <g id="line2d_6">
      <g>
       <use xlink:href="#m764f32b072" x="36" y="145.44" style="stroke: #000000; stroke-width: 1.5"/>
      </g>
     </g>
    </g>
    <g id="ytick_4">
     <g id="line2d_7">
      <g>
       <use xlink:href="#m764f32b072" x="36" y="189.792" style="stroke: #000000; stroke-width: 1.5"/>
      </g>
     </g>
    </g>
    <g id="ytick_5">
     <g id="line2d_8">
      <g>
       <use xlink:href="#m764f32b072" x="36" y="234.144" style="stroke: #000000; stroke-width: 1.5"/>
      </g>
     </g>
    </g>
   </g>
   <g id="patch_3">
    <path d="M 62.547923 38.9952 
L 62.547923 74.4768 
L 126.077418 74.4768 
L 126.077418 38.9952 
L 62.547923 38.9952 
z
" clip-path="url(#p99fd549681)" style="fill: #aabdc6; stroke: #1c1c1c; stroke-linejoin: miter"/>
   </g>
   <g id="line2d_9">
    <path d="M 62.547923 56.736 
L 44.971348 56.736 
" clip-path="url(#p99fd549681)" style="fill: none; stroke: #1c1c1c"/>
   </g>
   <g id="line2d_10">
    <path d="M 126.077418 56.736 
L 157.537264 56.736 
" clip-path="url(#p99fd549681)" style="fill: none; stroke: #1c1c1c"/>
   </g>
   <g id="line2d_11">
    <path d="M 44.971348 47.8656 
L 44.971348 65.6064 
" clip-path="url(#p99fd549681)" style="fill: none; stroke: #1c1c1c; stroke-linecap: square"/>
   </g>
   <g id="line2d_12">
    <path d="M 157.537264 47.8656 
L 157.537264 65.6064 
" clip-path="url(#p99fd549681)" style="fill: none; stroke: #1c1c1c; stroke-linecap: square"/>
   </g>
   <g id="line2d_13">
    <defs>
     <path id="ma79873fa27" d="M 0 3 
C 0.795609 3 1.55874 2.683901 2.12132 2.12132 
C 2.683901 1.55874 3 0.795609 3 0 
C 3 -0.795609 2.683901 -1.55874 2.12132 -2.12132 
C 1.55874 -2.683901 0.795609 -3 0 -3 
C -0.795609 -3 -1.55874 -2.683901 -2.12132 -2.12132 
C -2.683901 -1.55874 -3 -0.795609 -3 0 
C -3 0.795609 -2.683901 1.55874 -2.12132 2.12132 
C -1.55874 2.683901 -0.795609 3 0 3 
z
" style="stroke: #1c1c1c"/>
    </defs>
    <g clip-path="url(#p99fd549681)">
     <use xlink:href="#ma79873fa27" x="234.18079" y="56.736" style="fill-opacity: 0; stroke: #1c1c1c"/>
    </g>
   </g>
   <g id="patch_4">
    <path d="M 74.258112 83.3472 
L 74.258112 118.8288 
L 105.756895 118.8288 
L 105.756895 83.3472 
L 74.258112 83.3472 
z
" clip-path="url(#p99fd549681)" style="fill: #6a6eab; stroke: #1c1c1c; stroke-linejoin: miter"/>
   </g>
   <g id="line2d_14">
    <path d="M 74.258112 101.088 
L 64.214401 101.088 
" clip-path="url(#p99fd549681)" style="fill: none; stroke: #1c1c1c"/>
   </g>
   <g id="line2d_15">
    <path d="M 105.756895 101.088 
L 121.68677 101.088 
" clip-path="url(#p99fd549681)" style="fill: none; stroke: #1c1c1c"/>
   </g>
   <g id="line2d_16">
    <path d="M 64.214401 92.2176 
L 64.214401 109.9584 
" clip-path="url(#p99fd549681)" style="fill: none; stroke: #1c1c1c; stroke-linecap: square"/>
   </g>
   <g id="line2d_17">
    <path d="M 121.68677 92.2176 
L 121.68677 109.9584 
" clip-path="url(#p99fd549681)" style="fill: none; stroke: #1c1c1c; stroke-linecap: square"/>
   </g>
   <g id="line2d_18">
    <g clip-path="url(#p99fd549681)">
     <use xlink:href="#ma79873fa27" x="224.300433" y="101.088" style="fill-opacity: 0; stroke: #1c1c1c"/>
    </g>
   </g>
   <g id="patch_5">
    <path d="M 83.115334 127.6992 
L 83.115334 163.1808 
L 112.832059 163.1808 
L 112.832059 127.6992 
L 83.115334 127.6992 
z
" clip-path="url(#p99fd549681)" style="fill: #381844; stroke: #1c1c1c; stroke-linejoin: miter"/>
   </g>
   <g id="line2d_19">
    <path d="M 83.115334 145.44 
L 67.711823 145.44 
" clip-path="url(#p99fd549681)" style="fill: none; stroke: #1c1c1c"/>
   </g>
   <g id="line2d_20">
    <path d="M 112.832059 145.44 
L 135.919751 145.44 
" clip-path="url(#p99fd549681)" style="fill: none; stroke: #1c1c1c"/>
   </g>
   <g id="line2d_21">
    <path d="M 67.711823 136.5696 
L 67.711823 154.3104 
" clip-path="url(#p99fd549681)" style="fill: none; stroke: #1c1c1c; stroke-linecap: square"/>
   </g>
   <g id="line2d_22">
    <path d="M 135.919751 136.5696 
L 135.919751 154.3104 
" clip-path="url(#p99fd549681)" style="fill: none; stroke: #1c1c1c; stroke-linecap: square"/>
   </g>
   <g id="line2d_23"/>
   <g id="patch_6">
    <path d="M 64.769741 172.0512 
L 64.769741 207.5328 
L 115.189767 207.5328 
L 115.189767 172.0512 
L 64.769741 172.0512 
z
" clip-path="url(#p99fd549681)" style="fill: #722d50; stroke: #1c1c1c; stroke-linejoin: miter"/>
   </g>
   <g id="line2d_24">
    <path d="M 64.769741 189.792 
L 40.635533 189.792 
" clip-path="url(#p99fd549681)" style="fill: none; stroke: #1c1c1c"/>
   </g>
   <g id="line2d_25">
    <path d="M 115.189767 189.792 
L 162.206285 189.792 
" clip-path="url(#p99fd549681)" style="fill: none; stroke: #1c1c1c"/>
   </g>
   <g id="line2d_26">
    <path d="M 40.635533 180.9216 
L 40.635533 198.6624 
" clip-path="url(#p99fd549681)" style="fill: none; stroke: #1c1c1c; stroke-linecap: square"/>
   </g>
   <g id="line2d_27">
    <path d="M 162.206285 180.9216 
L 162.206285 198.6624 
" clip-path="url(#p99fd549681)" style="fill: none; stroke: #1c1c1c; stroke-linecap: square"/>
   </g>
   <g id="line2d_28"/>
   <g id="patch_7">
    <path d="M 68.47227 216.4032 
L 68.47227 251.8848 
L 87.255626 251.8848 
L 87.255626 216.4032 
L 68.47227 216.4032 
z
" clip-path="url(#p99fd549681)" style="fill: #b88672; stroke: #1c1c1c; stroke-linejoin: miter"/>
   </g>
   <g id="line2d_29">
    <path d="M 68.47227 234.144 
L 60.909115 234.144 
" clip-path="url(#p99fd549681)" style="fill: none; stroke: #1c1c1c"/>
   </g>
   <g id="line2d_30">
    <path d="M 87.255626 234.144 
L 88.995182 234.144 
" clip-path="url(#p99fd549681)" style="fill: none; stroke: #1c1c1c"/>
   </g>
   <g id="line2d_31">
    <path d="M 60.909115 225.2736 
L 60.909115 243.0144 
" clip-path="url(#p99fd549681)" style="fill: none; stroke: #1c1c1c; stroke-linecap: square"/>
   </g>
   <g id="line2d_32">
    <path d="M 88.995182 225.2736 
L 88.995182 243.0144 
" clip-path="url(#p99fd549681)" style="fill: none; stroke: #1c1c1c; stroke-linecap: square"/>
   </g>
   <g id="line2d_33">
    <g clip-path="url(#p99fd549681)">
     <use xlink:href="#ma79873fa27" x="119.33864" y="234.144" style="fill-opacity: 0; stroke: #1c1c1c"/>
     <use xlink:href="#ma79873fa27" x="137.011144" y="234.144" style="fill-opacity: 0; stroke: #1c1c1c"/>
    </g>
   </g>
   <g id="line2d_34">
    <path d="M 86.244718 38.9952 
L 86.244718 74.4768 
" clip-path="url(#p99fd549681)" style="fill: none; stroke: #1c1c1c"/>
   </g>
   <g id="line2d_35">
    <path d="M 77.396459 83.3472 
L 77.396459 118.8288 
" clip-path="url(#p99fd549681)" style="fill: none; stroke: #1c1c1c"/>
   </g>
   <g id="line2d_36">
    <path d="M 89.100672 127.6992 
L 89.100672 163.1808 
" clip-path="url(#p99fd549681)" style="fill: none; stroke: #1c1c1c"/>
   </g>
   <g id="line2d_37">
    <path d="M 78.838214 172.0512 
L 78.838214 207.5328 
" clip-path="url(#p99fd549681)" style="fill: none; stroke: #1c1c1c"/>
   </g>
   <g id="line2d_38">
    <path d="M 79.241313 216.4032 
L 79.241313 251.8848 
" clip-path="url(#p99fd549681)" style="fill: none; stroke: #1c1c1c"/>
   </g>
   <g id="patch_8">
    <path d="M 36 256.32 
L 36 34.56 
" style="fill: none; stroke: #000000; stroke-width: 1.5; stroke-linejoin: miter; stroke-linecap: square"/>
   </g>
   <g id="patch_9">
    <path d="M 36 256.32 
L 259.2 256.32 
" style="fill: none; stroke: #000000; stroke-width: 1.5; stroke-linejoin: miter; stroke-linecap: square"/>
   </g>
  </g>
 </g>
 <defs>
  <clipPath id="p99fd549681">
   <rect x="36" y="34.56" width="223.2" height="221.76"/>
  </clipPath>
 </defs>
</svg>
