<?xml version="1.0" encoding="utf-8" standalone="no"?>
<!DOCTYPE svg PUBLIC "-//W3C//DTD SVG 1.1//EN"
  "http://www.w3.org/Graphics/SVG/1.1/DTD/svg11.dtd">
<svg xmlns:xlink="http://www.w3.org/1999/xlink" width="288pt" height="288pt" viewBox="0 0 288 288" xmlns="http://www.w3.org/2000/svg" version="1.1">
 <metadata>
  <rdf:RDF xmlns:dc="http://purl.org/dc/elements/1.1/" xmlns:cc="http://creativecommons.org/ns#" xmlns:rdf="http://www.w3.org/1999/02/22-rdf-syntax-ns#">
   <cc:Work>
    <dc:type rdf:resource="http://purl.org/dc/dcmitype/StillImage"/>
    <dc:date>2025-03-31T11:19:23.732234</dc:date>
    <dc:format>image/svg+xml</dc:format>
    <dc:creator>
     <cc:Agent>
      <dc:title>Matplotlib v3.8.3, https://matplotlib.org/</dc:title>
     </cc:Agent>
    </dc:creator>
   </cc:Work>
  </rdf:RDF>
 </metadata>
 <defs>
  <style type="text/css">*{stroke-linejoin: round; stroke-linecap: butt}</style>
 </defs>
 <g id="figure_1">
  <g id="patch_1">
   <path d="M 0 288 
L 288 288 
L 288 0 
L 0 0 
L 0 288 
z
" style="fill: none"/>
  </g>
  <g id="axes_1">
   <g id="patch_2">
    <path d="M 36 256.32 
L 259.2 256.32 
L 259.2 34.56 
L 36 34.56 
L 36 256.32 
z
" style="fill: none"/>
   </g>
   <g id="matplotlib.axis_1">
    <g id="xtick_1">
     <g id="line2d_1">
      <defs>
       <path id="m62f5d50615" d="M 0 0 
L 0 3.5 
" style="stroke: #000000; stroke-width: 1.5"/>
      </defs>
      <g>
       <use xlink:href="#m62f5d50615" x="36" y="256.32" style="stroke: #000000; stroke-width: 1.5"/>
      </g>
     </g>
    </g>
    <g id="xtick_2">
     <g id="line2d_2">
      <g>
       <use xlink:href="#m62f5d50615" x="105.75" y="256.32" style="stroke: #000000; stroke-width: 1.5"/>
      </g>
     </g>
    </g>
    <g id="xtick_3">
     <g id="line2d_3">
      <g>
       <use xlink:href="#m62f5d50615" x="175.5" y="256.32" style="stroke: #000000; stroke-width: 1.5"/>
      </g>
     </g>
    </g>
    <g id="xtick_4">
     <g id="line2d_4">
      <g>
       <use xlink:href="#m62f5d50615" x="245.25" y="256.32" style="stroke: #000000; stroke-width: 1.5"/>
      </g>
     </g>
    </g>
   </g>
   <g id="matplotlib.axis_2">
    <g id="ytick_1">
     <g id="line2d_5">
      <defs>
       <path id="mcf34a2c6fb" d="M 0 0 
L -3.5 0 
" style="stroke: #000000; stroke-width: 1.5"/>
      </defs>
      <g>
       <use xlink:href="#mcf34a2c6fb" x="36" y="56.736" style="stroke: #000000; stroke-width: 1.5"/>
      </g>
     </g>
    </g>
    <g id="ytick_2">
     <g id="line2d_6">
      <g>
       <use xlink:href="#mcf34a2c6fb" x="36" y="101.088" style="stroke: #000000; stroke-width: 1.5"/>
      </g>
     </g>
    </g>
    <g id="ytick_3">
     <g id="line2d_7">
      <g>
       <use xlink:href="#mcf34a2c6fb" x="36" y="145.44" style="stroke: #000000; stroke-width: 1.5"/>
      </g>
     </g>
    </g>
    <g id="ytick_4">
     <g id="line2d_8">
      <g>
       <use xlink:href="#mcf34a2c6fb" x="36" y="189.792" style="stroke: #000000; stroke-width: 1.5"/>
      </g>
     </g>
    </g>
    <g id="ytick_5">
     <g id="line2d_9">
      <g>
       <use xlink:href="#mcf34a2c6fb" x="36" y="234.144" style="stroke: #000000; stroke-width: 1.5"/>
      </g>
     </g>
    </g>
   </g>
   <g id="patch_3">
    <path d="M 126.173202 38.9952 
L 126.173202 74.4768 
L 177.552323 74.4768 
L 177.552323 38.9952 
L 126.173202 38.9952 
z
" clip-path="url(#p6d8f3a3ff0)" style="fill: #aabdc6; stroke: #1c1c1c; stroke-linejoin: miter"/>
   </g>
   <g id="line2d_10">
    <path d="M 126.173202 56.736 
L 101.162661 56.736 
" clip-path="url(#p6d8f3a3ff0)" style="fill: none; stroke: #1c1c1c"/>
   </g>
   <g id="line2d_11">
    <path d="M 177.552323 56.736 
L 206.357456 56.736 
" clip-path="url(#p6d8f3a3ff0)" style="fill: none; stroke: #1c1c1c"/>
   </g>
   <g id="line2d_12">
    <path d="M 101.162661 47.8656 
L 101.162661 65.6064 
" clip-path="url(#p6d8f3a3ff0)" style="fill: none; stroke: #1c1c1c; stroke-linecap: square"/>
   </g>
   <g id="line2d_13">
    <path d="M 206.357456 47.8656 
L 206.357456 65.6064 
" clip-path="url(#p6d8f3a3ff0)" style="fill: none; stroke: #1c1c1c; stroke-linecap: square"/>
   </g>
   <g id="line2d_14"/>
   <g id="patch_4">
    <path d="M 110.676615 83.3472 
L 110.676615 118.8288 
L 163.54496 118.8288 
L 163.54496 83.3472 
L 110.676615 83.3472 
z
" clip-path="url(#p6d8f3a3ff0)" style="fill: #6a6eab; stroke: #1c1c1c; stroke-linejoin: miter"/>
   </g>
   <g id="line2d_15">
    <path d="M 110.676615 101.088 
L 93.206582 101.088 
" clip-path="url(#p6d8f3a3ff0)" style="fill: none; stroke: #1c1c1c"/>
   </g>
   <g id="line2d_16">
    <path d="M 163.54496 101.088 
L 209.808029 101.088 
" clip-path="url(#p6d8f3a3ff0)" style="fill: none; stroke: #1c1c1c"/>
   </g>
   <g id="line2d_17">
    <path d="M 93.206582 92.2176 
L 93.206582 109.9584 
" clip-path="url(#p6d8f3a3ff0)" style="fill: none; stroke: #1c1c1c; stroke-linecap: square"/>
   </g>
   <g id="line2d_18">
    <path d="M 209.808029 92.2176 
L 209.808029 109.9584 
" clip-path="url(#p6d8f3a3ff0)" style="fill: none; stroke: #1c1c1c; stroke-linecap: square"/>
   </g>
   <g id="line2d_19"/>
   <g id="patch_5">
    <path d="M 104.82699 127.6992 
L 104.82699 163.1808 
L 155.569995 163.1808 
L 155.569995 127.6992 
L 104.82699 127.6992 
z
" clip-path="url(#p6d8f3a3ff0)" style="fill: #381844; stroke: #1c1c1c; stroke-linejoin: miter"/>
   </g>
   <g id="line2d_20">
    <path d="M 104.82699 145.44 
L 87.203004 145.44 
" clip-path="url(#p6d8f3a3ff0)" style="fill: none; stroke: #1c1c1c"/>
   </g>
   <g id="line2d_21">
    <path d="M 155.569995 145.44 
L 216.836101 145.44 
" clip-path="url(#p6d8f3a3ff0)" style="fill: none; stroke: #1c1c1c"/>
   </g>
   <g id="line2d_22">
    <path d="M 87.203004 136.5696 
L 87.203004 154.3104 
" clip-path="url(#p6d8f3a3ff0)" style="fill: none; stroke: #1c1c1c; stroke-linecap: square"/>
   </g>
   <g id="line2d_23">
    <path d="M 216.836101 136.5696 
L 216.836101 154.3104 
" clip-path="url(#p6d8f3a3ff0)" style="fill: none; stroke: #1c1c1c; stroke-linecap: square"/>
   </g>
   <g id="line2d_24"/>
   <g id="patch_6">
    <path d="M 103.868748 172.0512 
L 103.868748 207.5328 
L 154.813799 207.5328 
L 154.813799 172.0512 
L 103.868748 172.0512 
z
" clip-path="url(#p6d8f3a3ff0)" style="fill: #722d50; stroke: #1c1c1c; stroke-linejoin: miter"/>
   </g>
   <g id="line2d_25">
    <path d="M 103.868748 189.792 
L 76.64858 189.792 
" clip-path="url(#p6d8f3a3ff0)" style="fill: none; stroke: #1c1c1c"/>
   </g>
   <g id="line2d_26">
    <path d="M 154.813799 189.792 
L 180.568317 189.792 
" clip-path="url(#p6d8f3a3ff0)" style="fill: none; stroke: #1c1c1c"/>
   </g>
   <g id="line2d_27">
    <path d="M 76.64858 180.9216 
L 76.64858 198.6624 
" clip-path="url(#p6d8f3a3ff0)" style="fill: none; stroke: #1c1c1c; stroke-linecap: square"/>
   </g>
   <g id="line2d_28">
    <path d="M 180.568317 180.9216 
L 180.568317 198.6624 
" clip-path="url(#p6d8f3a3ff0)" style="fill: none; stroke: #1c1c1c; stroke-linecap: square"/>
   </g>
   <g id="line2d_29">
    <defs>
     <path id="ma50f75f0ad" d="M 0 3 
C 0.795609 3 1.55874 2.683901 2.12132 2.12132 
C 2.683901 1.55874 3 0.795609 3 0 
C 3 -0.795609 2.683901 -1.55874 2.12132 -2.12132 
C 1.55874 -2.683901 0.795609 -3 0 -3 
C -0.795609 -3 -1.55874 -2.683901 -2.12132 -2.12132 
C -2.683901 -1.55874 -3 -0.795609 -3 0 
C -3 0.795609 -2.683901 1.55874 -2.12132 2.12132 
C -1.55874 2.683901 -0.795609 3 0 3 
z
" style="stroke: #1c1c1c"/>
    </defs>
    <g clip-path="url(#p6d8f3a3ff0)">
     <use xlink:href="#ma50f75f0ad" x="253.597934" y="189.792" style="fill-opacity: 0; stroke: #1c1c1c"/>
    </g>
   </g>
   <g id="patch_7">
    <path d="M 106.839323 216.4032 
L 106.839323 251.8848 
L 151.894776 251.8848 
L 151.894776 216.4032 
L 106.839323 216.4032 
z
" clip-path="url(#p6d8f3a3ff0)" style="fill: #b88672; stroke: #1c1c1c; stroke-linejoin: miter"/>
   </g>
   <g id="line2d_30">
    <path d="M 106.839323 234.144 
L 75.07508 234.144 
" clip-path="url(#p6d8f3a3ff0)" style="fill: none; stroke: #1c1c1c"/>
   </g>
   <g id="line2d_31">
    <path d="M 151.894776 234.144 
L 218.882002 234.144 
" clip-path="url(#p6d8f3a3ff0)" style="fill: none; stroke: #1c1c1c"/>
   </g>
   <g id="line2d_32">
    <path d="M 75.07508 225.2736 
L 75.07508 243.0144 
" clip-path="url(#p6d8f3a3ff0)" style="fill: none; stroke: #1c1c1c; stroke-linecap: square"/>
   </g>
   <g id="line2d_33">
    <path d="M 218.882002 225.2736 
L 218.882002 243.0144 
" clip-path="url(#p6d8f3a3ff0)" style="fill: none; stroke: #1c1c1c; stroke-linecap: square"/>
   </g>
   <g id="line2d_34"/>
   <g id="line2d_35">
    <path d="M 134.43055 38.9952 
L 134.43055 74.4768 
" clip-path="url(#p6d8f3a3ff0)" style="fill: none; stroke: #1c1c1c"/>
   </g>
   <g id="line2d_36">
    <path d="M 132.142991 83.3472 
L 132.142991 118.8288 
" clip-path="url(#p6d8f3a3ff0)" style="fill: none; stroke: #1c1c1c"/>
   </g>
   <g id="line2d_37">
    <path d="M 129.997869 127.6992 
L 129.997869 163.1808 
" clip-path="url(#p6d8f3a3ff0)" style="fill: none; stroke: #1c1c1c"/>
   </g>
   <g id="line2d_38">
    <path d="M 123.22343 172.0512 
L 123.22343 207.5328 
" clip-path="url(#p6d8f3a3ff0)" style="fill: none; stroke: #1c1c1c"/>
   </g>
   <g id="line2d_39">
    <path d="M 119.578402 216.4032 
L 119.578402 251.8848 
" clip-path="url(#p6d8f3a3ff0)" style="fill: none; stroke: #1c1c1c"/>
   </g>
   <g id="patch_8">
    <path d="M 36 256.32 
L 36 34.56 
" style="fill: none; stroke: #000000; stroke-width: 1.5; stroke-linejoin: miter; stroke-linecap: square"/>
   </g>
   <g id="patch_9">
    <path d="M 36 256.32 
L 259.2 256.32 
" style="fill: none; stroke: #000000; stroke-width: 1.5; stroke-linejoin: miter; stroke-linecap: square"/>
   </g>
  </g>
 </g>
 <defs>
  <clipPath id="p6d8f3a3ff0">
   <rect x="36" y="34.56" width="223.2" height="221.76"/>
  </clipPath>
 </defs>
</svg>
